# xmcd
#
# Track frame offsets: 
#        150
#        18790
#        39147
#        56652
#        78592
#        94554
#        115037
#        140120
#        159917
#        173565
#        194390
#        227785
#
# Disc length: 3386 seconds
#
# Revision: 0
# Processed by: cddbd v1.5.2PL0 Copyright (c) Steve Scherf et al.
# Submitted via: ExactAudioCopyFreeDBPlugin 1.0
#
DISCID=8a0d380c
DTITLE=Chris Bernardo and The DesBerados - Ignoring All The Warning Sign
DTITLE=s...
DYEAR=1900
DGENRE=Country
TTITLE0=The One
TTITLE1=So Far, So Good
TTITLE2=Never The Same
TTITLE3=I Will Love Again
TTITLE4=Everybody Swings Around Here
TTITLE5=Forty Years
TTITLE6=One Silver Rider
TTITLE7=Save My Life
TTITLE8=Passenger Side
TTITLE9=Barstool
TTITLE10=September Prayer
TTITLE11=Untitled
EXTD=
EXTT0=
EXTT1=
EXTT2=
EXTT3=
EXTT4=
EXTT5=
EXTT6=
EXTT7=
EXTT8=
EXTT9=
EXTT10=
EXTT11=
PLAYORDER=
